<svg xmlns="http://www.w3.org/2000/svg" width="23.788" height="23.788" viewBox="0 0 23.788 23.788">
  <g id="Group_245" data-name="Group 245" transform="translate(-42.768 -189.176)">
    <path id="Path_1794" data-name="Path 1794" d="M11.894,0A11.894,11.894,0,1,1,0,11.894,11.894,11.894,0,0,1,11.894,0Z" transform="translate(42.768 189.176)" fill="#fff"/>
    <path id="Union_35" data-name="Union 35" d="M4.984,10.715V6.479H.748a.747.747,0,1,1,0-1.495H4.984V.748a.747.747,0,1,1,1.495,0V4.984h4.236a.747.747,0,1,1,0,1.495H6.479v4.236a.747.747,0,1,1-1.495,0Z" transform="translate(60.393 195.434) rotate(90)" fill="#2092e9"/>
  </g>
</svg>
