<svg xmlns="http://www.w3.org/2000/svg" width="17.267" height="19.85" viewBox="0 0 17.267 19.85">
  <path id="Icon_awesome-bell" data-name="Icon awesome-bell" d="M8.633,19.85A2.474,2.474,0,0,0,11.1,17.368H6.168A2.474,2.474,0,0,0,8.633,19.85Zm8.3-5.8c-.745-.8-2.138-2.016-2.138-5.982A6.113,6.113,0,0,0,9.866,2.049V1.241a1.233,1.233,0,1,0-2.465,0v.808A6.113,6.113,0,0,0,2.47,8.064c0,3.966-1.393,5.177-2.138,5.982A1.215,1.215,0,0,0,0,14.887a1.238,1.238,0,0,0,1.237,1.241H16.03a1.238,1.238,0,0,0,1.237-1.241,1.215,1.215,0,0,0-.332-.842Z" transform="translate(0)" fill="#fff"/>
</svg>
