<svg id="camera" xmlns="http://www.w3.org/2000/svg" width="77.621" height="58.216" viewBox="0 0 77.621 58.216">
  <path id="Path_1787" data-name="Path 1787" d="M37.2,26.916A11.623,11.623,0,1,1,25.58,15.293,11.623,11.623,0,0,1,37.2,26.916Z" transform="translate(13.231 6.033)" fill="#162546"/>
  <path id="Path_1788" data-name="Path 1788" d="M75.956,17.578H64.94a3.281,3.281,0,0,1-2.426-1.092c-5.741-6.428-7.9-8.611-10.248-8.611H34.983c-2.365,0-4.69,2.183-10.451,8.631a3.218,3.218,0,0,1-2.405,1.071H21.3V15.961a1.622,1.622,0,0,0-1.617-1.617H14.425a1.622,1.622,0,0,0-1.617,1.617v1.617H11.292c-3.578,0-6.792,2.668-6.792,6.206V59.36a7,7,0,0,0,6.772,6.731H75.956c3.558,0,6.165-3.194,6.165-6.731V23.783A6.025,6.025,0,0,0,75.956,17.578ZM44.119,58.086A17.282,17.282,0,1,1,60.573,41.632,17.3,17.3,0,0,1,44.119,58.086ZM62.716,29.3a2.628,2.628,0,1,1,2.628-2.628A2.623,2.623,0,0,1,62.716,29.3Z" transform="translate(-4.5 -7.875)" fill="#162546"/>
</svg>
