<svg xmlns="http://www.w3.org/2000/svg" width="40.816" height="21.337" viewBox="0 0 40.816 21.337">
  <g id="car" transform="translate(0 0)">
    <path id="Path_4223" data-name="Path 4223" d="M-2900.745,975.319c-.017-.279-.186-1.017-1.389-1.837a18.8,18.8,0,0,0-6.757-2.279l-5.52-4.422a11.1,11.1,0,0,0-6.919-2.431h-4.481a11.062,11.062,0,0,0-7.293,2.745l-3.655,3.2h-1.36a2.6,2.6,0,0,0-2.593,2.6v1.487l-.848,1.7v1.911a4.3,4.3,0,0,0,4.29,4.3h.037a4.3,4.3,0,0,0,4.195,3.4,4.3,4.3,0,0,0,4.195-3.4h15.8a4.3,4.3,0,0,0,4.195,3.4,4.3,4.3,0,0,0,4.195-3.4h1.32a2.6,2.6,0,0,0,2.592-2.6v-4.374Zm-32.294,8.529a2.455,2.455,0,0,1-2.453-2.457,2.455,2.455,0,0,1,2.453-2.456,2.455,2.455,0,0,1,2.453,2.456A2.455,2.455,0,0,1-2933.039,983.849Zm24.188,0a2.455,2.455,0,0,1-2.453-2.457,2.455,2.455,0,0,1,2.453-2.456,2.455,2.455,0,0,1,2.453,2.456A2.455,2.455,0,0,1-2908.851,983.849Zm6.315-4.156a.8.8,0,0,1-.8.8h-1.32a4.3,4.3,0,0,0-4.195-3.4,4.3,4.3,0,0,0-4.195,3.4h-15.8a4.3,4.3,0,0,0-4.195-3.4,4.3,4.3,0,0,0-4.195,3.4h-.037a2.5,2.5,0,0,1-2.5-2.5v-1.488l.535-1.071a10.141,10.141,0,0,0,.314-1.737v-.8a.8.8,0,0,1,.8-.8h2.033l4.162-3.647a9.271,9.271,0,0,1,6.113-2.3h4.481a9.311,9.311,0,0,1,5.8,2.038l3.7,2.965h-9.276v-3.3a.9.9,0,0,0-.9-.9.9.9,0,0,0-.9.9v3.3h-4.862a.278.278,0,0,1-.249-.4l.946-1.943a.9.9,0,0,0-.413-1.2h0a.9.9,0,0,0-1.2.413l-2.215,4.551a.259.259,0,0,0,.233.373h21.3c4.938.911,6.352,2.032,6.725,2.454l.1,1.794Z" transform="translate(2941.56 -964.351)" fill="#003488"/>
  </g>
</svg>
