<svg xmlns="http://www.w3.org/2000/svg" width="30.236" height="30.856" viewBox="0 0 30.236 30.856">
  <g id="chair" transform="translate(2350.186 -795.273)">
    <path id="Path_4224" data-name="Path 4224" d="M-2321.558,956.093l-.045-.015a3.174,3.174,0,0,0-3.6,1.288,16.27,16.27,0,0,0-1.875,6.006,3.466,3.466,0,0,1-3.43,2.951h-8.855a3.469,3.469,0,0,1-3.411-2.842,16.844,16.844,0,0,0-2.177-6.2,3.2,3.2,0,0,0-3.57-1.227c-1.941.631-2.068,2.752-.974,4.961l3.125,9.2a5.793,5.793,0,0,0,2.14,2.867v1.562a1.271,1.271,0,0,0,1.271,1.271h1.172a1.271,1.271,0,0,0,1.271-1.271v-.493l10.938.053v.44a1.271,1.271,0,0,0,1.271,1.271h1.171a1.271,1.271,0,0,0,1.271-1.271v-1.358a5.794,5.794,0,0,0,2.366-3.038c1.214-3.625,2.893-8.8,3.49-11.383A2.359,2.359,0,0,0-2321.558,956.093Zm.232,2.469c-.576,2.5-2.2,7.5-3.454,11.258a4.465,4.465,0,0,1-1.815,2.331l-.62.4-1.013.312-13.639-.066-1.013-.411-.57-.4a4.425,4.425,0,0,1-1.642-2.2l-3.154-9.284-.04-.08a3.5,3.5,0,0,1-.447-2.56.894.894,0,0,1,.628-.517,1.7,1.7,0,0,1,.526-.083,1.894,1.894,0,0,1,1.528.811,15.262,15.262,0,0,1,1.949,5.66,4.819,4.819,0,0,0,4.739,3.948h8.855a4.824,4.824,0,0,0,3.144-1.166,4.812,4.812,0,0,0,1.621-2.936,14.532,14.532,0,0,1,1.669-5.465,1.842,1.842,0,0,1,1.526-.823,1.783,1.783,0,0,1,.538.083l.028.009A1.013,1.013,0,0,1-2321.326,958.562Z" transform="translate(0 -149.786)" fill="#003488"/>
    <path id="Path_4225" data-name="Path 4225" d="M-2296.062,805.667h0c.431.228.9-.131,1.047-.806.55-2.553,1.386-5.458,2.975-6.33a15.6,15.6,0,0,1,7.015-1.552,15.628,15.628,0,0,1,7.093,1.552c1.541.858,2.232,3.722,2.774,6.24.17.79.71,1.225,1.216.965h0a1.4,1.4,0,0,0,.359-1.145c-.841-8.974-6.75-9.318-11.444-9.318-4.674,0-10.556.29-11.434,9.213A1.364,1.364,0,0,0-2296.062,805.667Z" transform="translate(-50.092)" fill="#003488"/>
  </g>
</svg>
