<svg id="chat_1_" data-name="chat(1)" xmlns="http://www.w3.org/2000/svg" width="36.006" height="36.008" viewBox="0 0 36.006 36.008">
  <g id="Group_515" data-name="Group 515" transform="translate(0 0)">
    <g id="Group_514" data-name="Group 514" transform="translate(0 0)">
      <path id="Path_1873" data-name="Path 1873" d="M35.661,14.45A18,18,0,0,0,15.027.251l-.09.014A18.007,18.007,0,0,0,.844,23.395a13.472,13.472,0,0,1-.687,9.72A1.5,1.5,0,0,0,1.909,35.2l6.723-1.836a17.841,17.841,0,0,0,9.344,2.645,18.146,18.146,0,0,0,3.591-.36,18,18,0,0,0,14.094-21.2ZM30.506,26.306a15,15,0,0,1-20.8,4.187,1.5,1.5,0,0,0-.831-.251,1.531,1.531,0,0,0-.394.053L3.9,31.544a16.5,16.5,0,0,0-.2-9.044,14.816,14.816,0,0,1-.471-1.934A15.017,15.017,0,0,1,15.381,3.233l.081-.012A15,15,0,0,1,30.506,26.306Z" transform="translate(-0.014 0)" fill="#254161"/>
    </g>
  </g>
  <g id="Group_517" data-name="Group 517" transform="translate(10.5 13.502)">
    <g id="Group_516" data-name="Group 516">
      <path id="Path_1874" data-name="Path 1874" d="M162.809,191.991h-12a1.5,1.5,0,0,0,0,3h12a1.5,1.5,0,0,0,0-3Z" transform="translate(-149.309 -191.991)" fill="#254161"/>
    </g>
  </g>
  <g id="Group_519" data-name="Group 519" transform="translate(10.5 19.502)">
    <g id="Group_518" data-name="Group 518">
      <path id="Path_1875" data-name="Path 1875" d="M162.809,277.306h-12a1.5,1.5,0,0,0,0,3h12a1.5,1.5,0,0,0,0-3Z" transform="translate(-149.309 -277.306)" fill="#254161"/>
    </g>
  </g>
</svg>
