<svg id="clock" xmlns="http://www.w3.org/2000/svg" width="27.847" height="27.847" viewBox="0 0 27.847 27.847">
  <g id="Group_241" data-name="Group 241">
    <g id="Group_240" data-name="Group 240">
      <path id="Path_1795" data-name="Path 1795" d="M13.924,0A13.924,13.924,0,1,0,27.847,13.924,13.94,13.94,0,0,0,13.924,0Zm0,25.815A11.891,11.891,0,1,1,25.815,13.923,11.9,11.9,0,0,1,13.924,25.815Z" fill="#fff"/>
    </g>
  </g>
  <g id="Group_243" data-name="Group 243" transform="translate(12.23 6.809)">
    <g id="Group_242" data-name="Group 242">
      <path id="Path_1796" data-name="Path 1796" d="M231.294,132.311h-4.4v-6.1a1.016,1.016,0,1,0-2.033,0v7.114a1.016,1.016,0,0,0,1.016,1.016h5.42a1.016,1.016,0,1,0,0-2.033Z" transform="translate(-224.857 -125.197)" fill="#fff"/>
    </g>
  </g>
</svg>
