<svg xmlns="http://www.w3.org/2000/svg" width="16.443" height="27.373" viewBox="0 0 16.443 27.373">
  <g id="Group_2891" data-name="Group 2891" transform="translate(-10.779 -5.313)">
    <path id="Path_4256" data-name="Path 4256" d="M2099.546-81.212h-1.564v-.879a1.162,1.162,0,0,0-1.162-1.162h-1.688a1.3,1.3,0,0,0-1.292-1.209h-2.289a1.3,1.3,0,0,0-1.292,1.209h-1.688a1.162,1.162,0,0,0-1.162,1.162v.879h-1.564a1.37,1.37,0,0,0-1.371,1.37V-58.46a1.371,1.371,0,0,0,1.371,1.371h13.7a1.371,1.371,0,0,0,1.371-1.371V-79.842A1.37,1.37,0,0,0,2099.546-81.212Zm-6.851-2.62a1.171,1.171,0,0,1,1.172,1.172,1.171,1.171,0,0,1-1.172,1.171,1.171,1.171,0,0,1-1.171-1.171A1.171,1.171,0,0,1,2092.7-83.832Zm7.163,25.372a.312.312,0,0,1-.312.312h-13.7a.312.312,0,0,1-.312-.312V-79.842a.312.312,0,0,1,.312-.312h1.564v.1a1.162,1.162,0,0,0,1.162,1.162h8.249a1.162,1.162,0,0,0,1.162-1.162v-.1h1.564a.312.312,0,0,1,.312.312Z" transform="translate(-2073.696 89.775)" fill="#fff"/>
    <path id="Path_4257" data-name="Path 4257" d="M2097.667-76.077h-9.816a.7.7,0,0,0-.625.749.7.7,0,0,0,.625.749h9.816a.7.7,0,0,0,.626-.749A.7.7,0,0,0,2097.667-76.077Z" transform="translate(-2073.696 89.775)" fill="#fff"/>
    <path id="Path_4258" data-name="Path 4258" d="M2097.667-72.752h-9.816a.7.7,0,0,0-.625.749.7.7,0,0,0,.625.749h9.816a.7.7,0,0,0,.626-.749A.7.7,0,0,0,2097.667-72.752Z" transform="translate(-2073.696 89.775)" fill="#fff"/>
    <path id="Path_4259" data-name="Path 4259" d="M2097.667-66.617h-9.816a.7.7,0,0,0-.625.749.7.7,0,0,0,.625.749h9.816a.7.7,0,0,0,.626-.749A.7.7,0,0,0,2097.667-66.617Z" transform="translate(-2073.696 89.775)" fill="#fff"/>
    <path id="Path_4260" data-name="Path 4260" d="M2097.667-63.292h-9.816a.7.7,0,0,0-.625.749.7.7,0,0,0,.625.75h9.816a.7.7,0,0,0,.626-.75A.7.7,0,0,0,2097.667-63.292Z" transform="translate(-2073.696 89.775)" fill="#fff"/>
  </g>
</svg>
