<svg enable-background="new 0 0 384.97 384.97" width="50" height="50" version="1.1" viewBox="0 0 384.97 384.97" xml:space="preserve" xmlns="http://www.w3.org/2000/svg">
		<path fill="#d9e8f5" d="m192.48 0c-106.3 0-192.48 86.173-192.48 192.48 0 106.3 86.185 192.48 192.48 192.48 106.31 0 192.48-86.185 192.48-192.48 0-106.31-86.173-192.48-192.48-192.48zm0 360.91c-93.018 0-168.42-75.406-168.42-168.42s75.406-168.42 168.42-168.42 168.42 75.406 168.42 168.42-75.406 168.42-168.42 168.42z"/>
		<path fill="#d9e8f5" d="m268.1 209.24-63.46 62.558v-187.59c0-6.641-5.438-12.03-12.151-12.03s-12.151 5.39-12.151 12.03v187.59l-63.46-62.558c-4.74-4.692-12.439-4.692-17.179 0-4.74 4.704-4.74 12.319 0 17.011l84.2 82.997c2.25 2.25 5.414 3.537 8.59 3.537 3.164 0 6.328-1.299 8.59-3.525l84.2-82.997c4.752-4.704 4.74-12.319 0-17.011-4.739-4.704-12.439-4.704-17.179-0.012z"/>
</svg>
