<svg xmlns="http://www.w3.org/2000/svg" width="123.93" height="138.408" viewBox="0 0 123.93 138.408">
  <g id="dustbin" transform="translate(-5.661 -2)">
    <g id="Group_916" data-name="Group 916" transform="translate(5.661 2)">
      <path id="Path_1916" data-name="Path 1916" d="M100.623,126.676H25.163a6.088,6.088,0,0,1-6.031-5.546L10.511,18.192a1.977,1.977,0,0,1,1.977-2.141H113.313a1.977,1.977,0,0,1,1.977,2.141L106.669,121.13A6.088,6.088,0,0,1,100.623,126.676ZM14.632,20.006,23.075,120.8a2.108,2.108,0,0,0,2.088,1.922h75.46a2.108,2.108,0,0,0,2.09-1.922l8.443-100.795Z" transform="translate(-0.928 11.731)" fill="#254161"/>
      <path id="Path_1917" data-name="Path 1917" d="M125.307,27.222H9.946a4.291,4.291,0,0,1-4.285-4.285V12.97A4.289,4.289,0,0,1,9.946,8.685H125.307a4.289,4.289,0,0,1,4.285,4.285v9.969A4.291,4.291,0,0,1,125.307,27.222ZM9.946,12.64a.33.33,0,0,0-.33.33v9.969a.33.33,0,0,0,.33.33H125.307a.33.33,0,0,0,.33-.33V12.97a.33.33,0,0,0-.33-.33Z" transform="translate(-5.661 4.533)" fill="#254161"/>
      <path id="Path_1918" data-name="Path 1918" d="M64.012,19.172H29.165A1.977,1.977,0,0,1,27.188,17.2V7.176A5.182,5.182,0,0,1,32.364,2H60.813A5.182,5.182,0,0,1,65.99,7.176V17.2A1.977,1.977,0,0,1,64.012,19.172Zm-32.87-3.955H62.035V7.176a1.222,1.222,0,0,0-1.222-1.222H32.364a1.222,1.222,0,0,0-1.222,1.222Z" transform="translate(15.376 -2)" fill="#254161"/>
      <path id="Path_1919" data-name="Path 1919" d="M48.44,83.517h-.174a1.977,1.977,0,0,1-1.8-2.141l4.526-51.668a1.977,1.977,0,1,1,3.939.346l-4.524,51.66A1.977,1.977,0,0,1,48.44,83.517Z" transform="translate(34.211 23.314)" fill="#254161"/>
      <path id="Path_1920" data-name="Path 1920" d="M37.977,83.52A1.977,1.977,0,0,1,36,81.543V29.877a1.977,1.977,0,1,1,3.955,0V81.543A1.977,1.977,0,0,1,37.977,83.52Z" transform="translate(23.988 23.311)" fill="#254161"/>
      <path id="Path_1921" data-name="Path 1921" d="M29.751,83.521a1.977,1.977,0,0,1-1.977-1.805L23.258,30.05A1.977,1.977,0,1,1,27.2,29.7l4.526,51.668a1.977,1.977,0,0,1-1.8,2.141,1.633,1.633,0,0,1-.174.008Z" transform="translate(11.528 23.31)" fill="#254161"/>
    </g>
  </g>
</svg>
