<svg xmlns="http://www.w3.org/2000/svg" width="19" height="27.064" viewBox="0 0 19 27.064">
  <g id="export" transform="translate(-103 -6.968)">
    <rect id="Rectangle_3041" data-name="Rectangle 3041" width="19" height="3" rx="1.5" transform="translate(103 31.032)" fill="#244365"/>
    <path id="Icon_open-arrow-thick-bottom" data-name="Icon open-arrow-thick-bottom" d="M1920.131,806.176V818.19a.267.267,0,0,1-.266.267H1915.7a.463.463,0,0,0-.326.793l7.287,7.214a.464.464,0,0,0,.656,0l7.142-7.214a.464.464,0,0,0-.33-.79h-4.177a.268.268,0,0,1-.267-.267V806.176a1.61,1.61,0,0,0-1.61-1.61h-2.337A1.61,1.61,0,0,0,1920.131,806.176Z" transform="translate(-1810.418 -797.598)" fill="#244365"/>
  </g>
</svg>
