<svg xmlns="http://www.w3.org/2000/svg" width="42.496" height="42.497" viewBox="0 0 42.496 42.497">
  <path id="map-signs" d="M459.71,151.863l-3.595-3.6a2.656,2.656,0,0,0-1.878-.778h-12.73v-1.328a1.328,1.328,0,0,0-1.328-1.328h-2.657a1.328,1.328,0,0,0-1.328,1.328v1.328H422.251a1.993,1.993,0,0,0-1.993,1.993h0v6.64a1.993,1.993,0,0,0,1.993,1.991h31.991a2.656,2.656,0,0,0,1.878-.778l3.59-3.595a1.328,1.328,0,0,0,0-1.878ZM436.194,186a1.328,1.328,0,0,0,1.328,1.328h2.657A1.328,1.328,0,0,0,441.507,186v-9.3h-5.313Zm19.258-22.576H441.507v-2.657h-5.313v2.657h-12.73a2.658,2.658,0,0,0-1.878.778l-3.595,3.6a1.329,1.329,0,0,0,0,1.878h0l3.595,3.594a2.655,2.655,0,0,0,1.878.778h31.991a1.992,1.992,0,0,0,1.992-1.991v-6.641a1.992,1.992,0,0,0-1.992-1.992Z" transform="translate(-417.603 -144.833)" fill="#fff"/>
</svg>
