<svg version="1.2" baseProfile="tiny-ps" xmlns="http://www.w3.org/2000/svg" viewBox="0 0 46 46" width="46" height="46">
	<title>notify-svg</title>
	<style>
		tspan { white-space:pre }
		.shp0 { fill: #064670 } 
	</style>
	<path id="notify" class="shp0" d="M10.54 34.61C10.93 35.01 11.4 35.32 11.92 35.54C12.43 35.75 12.98 35.86 13.54 35.86C14.1 35.86 14.65 35.75 15.17 35.54C15.69 35.32 16.16 35.01 16.55 34.61L10.53 28.6C10.14 28.99 9.83 29.46 9.61 29.98C9.4 30.5 9.29 31.05 9.29 31.61C9.29 32.17 9.4 32.72 9.61 33.23C9.83 33.75 10.14 34.22 10.54 34.61L10.54 34.61ZM27.7 37.71C27.77 35.82 27.54 32.65 32.35 27.84C33.21 26.99 33.91 25.99 34.43 24.89C34.94 23.8 35.27 22.62 35.38 21.41C35.5 20.21 35.41 18.99 35.11 17.82C34.81 16.64 34.31 15.53 33.63 14.53L34.61 13.54C35.01 13.15 35.24 12.6 35.24 12.04C35.24 11.48 35.01 10.93 34.61 10.54C34.21 10.14 33.67 9.91 33.11 9.91C32.55 9.91 32 10.14 31.61 10.54L30.63 11.52C29.62 10.84 28.51 10.34 27.33 10.04C26.16 9.74 24.94 9.65 23.74 9.76C22.53 9.88 21.36 10.2 20.26 10.72C19.16 11.24 18.17 11.94 17.31 12.8C12.5 17.6 9.33 17.38 7.45 17.44C7.31 17.45 7.18 17.46 7.05 17.49C6.92 17.52 6.8 17.56 6.67 17.61C6.55 17.67 6.43 17.73 6.32 17.81C6.22 17.88 6.11 17.97 6.02 18.06C5.82 18.26 5.66 18.49 5.56 18.75C5.45 19.01 5.4 19.29 5.4 19.57C5.4 19.85 5.45 20.12 5.56 20.38C5.67 20.64 5.83 20.88 6.02 21.07L24.07 39.12C24.27 39.32 24.51 39.48 24.77 39.59C25.02 39.7 25.3 39.75 25.58 39.75C25.86 39.75 26.14 39.7 26.4 39.59C26.66 39.49 26.89 39.33 27.09 39.13C27.19 39.04 27.27 38.94 27.35 38.83C27.42 38.72 27.48 38.6 27.54 38.48C27.59 38.36 27.63 38.23 27.66 38.1C27.69 37.97 27.7 37.84 27.71 37.71L27.7 37.71Z" />
</svg>