<svg xmlns="http://www.w3.org/2000/svg" width="28.639" height="26.805" viewBox="0 0 28.639 26.805">
  <g id="refresh" transform="translate(-28 26.805) rotate(-90)">
    <path id="Path_4227" data-name="Path 4227" d="M-4021.265,1195.546h-7.753a.624.624,0,0,0-.441,1.065l2.173,2.173a.624.624,0,0,1-.03.91,9.883,9.883,0,0,1-13.49-.459,9.871,9.871,0,0,1-2.729-8.775,1.007,1.007,0,0,0-.992-1.187h-1.3a1.011,1.011,0,0,0-1,.852,13.152,13.152,0,0,0,3.12,10.842,13.177,13.177,0,0,0,9.885,4.462,13.134,13.134,0,0,0,8.886-3.446.624.624,0,0,1,.863.018l2.363,2.364a.624.624,0,0,0,1.065-.441v-7.753A.624.624,0,0,0-4021.265,1195.546Z" transform="translate(4046.995 -1148.79)" fill="#fff"/>
    <path id="Path_4228" data-name="Path 4228" d="M-4031.376,849.916h7.753a.624.624,0,0,0,.441-1.065l-2.173-2.173a.624.624,0,0,1,.03-.91,9.883,9.883,0,0,1,13.49.459,9.869,9.869,0,0,1,2.729,8.775,1.008,1.008,0,0,0,.993,1.187h1.3a1.011,1.011,0,0,0,1-.852,13.151,13.151,0,0,0-3.12-10.842,13.178,13.178,0,0,0-9.885-4.463,13.135,13.135,0,0,0-8.886,3.446.624.624,0,0,1-.863-.018l-2.364-2.364a.624.624,0,0,0-1.064.441v7.753A.624.624,0,0,0-4031.376,849.916Z" transform="translate(4032.45 -812.034)" fill="#fff"/>
  </g>
</svg>
