<svg xmlns="http://www.w3.org/2000/svg" width="25.732" height="25.732" viewBox="0 0 25.732 25.732">
  <path id="search-dark" d="M11.157-.013a11.157,11.157,0,0,0,0,22.314,11.027,11.027,0,0,0,5.292-1.307,3.188,3.188,0,0,0,.414.414L20.05,24.6a3.251,3.251,0,1,0,4.59-4.59l-3.188-3.188a3.188,3.188,0,0,0-.51-.414,11.007,11.007,0,0,0,1.4-5.292A11.169,11.169,0,0,0,11.189-.045Zm0,3.188a7.932,7.932,0,0,1,7.969,7.969,7.993,7.993,0,0,1-2.1,5.483l-.1.1a3.188,3.188,0,0,0-.414.414,7.976,7.976,0,0,1-5.387,2.008,7.969,7.969,0,0,1,0-15.938Z" transform="translate(0 0.045)" fill="#244365"/>
</svg>
