<svg version="1.2" baseProfile="tiny-ps" xmlns="http://www.w3.org/2000/svg" viewBox="0 0 26 26" width="26" height="26">
	<title>search-svg</title>
	<style>
		tspan { white-space:pre }
		.shp0 { fill: #064670 } 
	</style>
	<path id="search" fill-rule="evenodd" class="shp0" d="M11.19 0C12.65 0 14.1 0.29 15.46 0.85C16.81 1.42 18.04 2.24 19.07 3.27C20.11 4.31 20.93 5.54 21.49 6.89C22.05 8.25 22.34 9.7 22.34 11.16C22.34 11.62 22.31 12.08 22.25 12.54C22.18 13 22.09 13.45 21.98 13.9C21.86 14.34 21.71 14.78 21.54 15.21C21.37 15.63 21.17 16.05 20.94 16.45C20.99 16.48 21.03 16.51 21.08 16.55C21.12 16.58 21.17 16.61 21.21 16.65C21.25 16.68 21.29 16.72 21.33 16.75C21.37 16.79 21.41 16.83 21.45 16.87L24.64 20.06C25.31 20.65 25.7 21.49 25.73 22.39C25.75 23.28 25.41 24.15 24.78 24.78C24.14 25.41 23.28 25.76 22.38 25.73C21.49 25.71 20.65 25.31 20.05 24.65L16.86 21.45C16.83 21.42 16.79 21.39 16.75 21.36C16.72 21.32 16.68 21.29 16.65 21.26C16.61 21.22 16.58 21.19 16.55 21.15C16.51 21.11 16.48 21.08 16.45 21.04C16.04 21.26 15.63 21.45 15.2 21.61C14.77 21.78 14.33 21.91 13.89 22.02C13.44 22.13 12.99 22.22 12.53 22.27C12.08 22.32 11.62 22.35 11.16 22.35C8.2 22.35 5.36 21.17 3.27 19.08C1.18 16.99 0 14.15 0 11.19C0 8.23 1.18 5.39 3.27 3.3C5.36 1.21 8.2 0.03 11.16 0.03L11.19 0ZM11.12 3.26C9.01 3.26 6.98 4.1 5.49 5.59C4 7.08 3.16 9.11 3.16 11.23C3.16 13.34 4 15.37 5.49 16.86C6.98 18.35 9.01 19.19 11.12 19.19C11.62 19.2 12.11 19.16 12.59 19.08C13.07 18.99 13.55 18.86 14.01 18.69C14.47 18.52 14.91 18.31 15.33 18.05C15.75 17.8 16.15 17.51 16.51 17.19C16.54 17.15 16.58 17.11 16.61 17.08C16.64 17.04 16.67 17 16.71 16.97C16.74 16.93 16.78 16.9 16.82 16.87C16.85 16.84 16.89 16.8 16.93 16.77L17.03 16.67C17.36 16.3 17.67 15.9 17.93 15.48C18.2 15.05 18.42 14.6 18.6 14.13C18.78 13.66 18.91 13.18 19 12.68C19.09 12.19 19.13 11.69 19.13 11.19C19.13 10.14 18.93 9.1 18.53 8.13C18.13 7.16 17.54 6.28 16.8 5.54C16.06 4.8 15.18 4.22 14.21 3.82C13.24 3.42 12.2 3.22 11.16 3.22L11.12 3.26Z" />
</svg>