<svg version="1.2" baseProfile="tiny-ps" xmlns="http://www.w3.org/2000/svg" viewBox="0 0 34 34" width="34" height="34">
	<title>setting-svg</title>
	<defs>
		<clipPath clipPathUnits="userSpaceOnUse" id="cp1">
			<path d="M0 0L34 0L34 34L0 34L0 0Z" />
		</clipPath>
	</defs>
	<style>
		tspan { white-space:pre }
		.shp0 { fill: #064670 } 
	</style>
	<g id="settings">
		<g id="Clip-Path: Group_52" clip-path="url(#cp1)">
			<g id="Group_52">
				<path id="Path_1716" fill-rule="evenodd" class="shp0" d="M14.62 0.77L19.24 0.77C19.29 0.86 19.34 0.95 19.39 1.04C19.44 1.13 19.48 1.22 19.53 1.32C19.57 1.41 19.61 1.51 19.65 1.61C19.69 1.7 19.73 1.8 19.76 1.9C19.81 2.05 19.85 2.21 19.88 2.37C19.92 2.53 19.95 2.68 19.98 2.84C20.01 3 20.03 3.16 20.05 3.32C20.07 3.48 20.09 3.64 20.1 3.8C20.18 4.82 20.51 5.58 21.64 5.76C21.89 5.8 22.11 6.02 22.36 6.06C22.42 6.07 22.49 6.08 22.55 6.09C22.62 6.09 22.68 6.09 22.75 6.09C22.81 6.08 22.88 6.07 22.94 6.05C23 6.03 23.06 6.01 23.12 5.98C24.01 5.42 24.87 4.81 25.75 4.22C26.46 3.73 26.74 3.76 27.36 4.38C28.11 5.13 28.84 5.89 29.61 6.62C29.74 6.71 29.84 6.82 29.92 6.95C29.99 7.07 30.04 7.22 30.06 7.37C30.07 7.52 30.06 7.67 30.01 7.81C29.96 7.95 29.88 8.08 29.78 8.19C29.15 9.04 28.57 9.92 27.99 10.8C27.96 10.86 27.93 10.91 27.91 10.97C27.89 11.02 27.87 11.08 27.86 11.14C27.85 11.2 27.84 11.26 27.84 11.32C27.85 11.38 27.85 11.44 27.86 11.5C27.91 11.64 27.95 11.78 28 11.92C28.05 12.06 28.11 12.2 28.16 12.34C28.22 12.48 28.28 12.62 28.34 12.75C28.41 12.89 28.47 13.02 28.54 13.16C28.57 13.21 28.61 13.26 28.65 13.3C28.7 13.35 28.74 13.39 28.79 13.42C28.84 13.46 28.9 13.49 28.95 13.51C29.01 13.54 29.07 13.56 29.13 13.57C29.99 13.76 30.88 13.85 31.74 14.07C31.87 14.12 32 14.17 32.12 14.22C32.25 14.27 32.38 14.33 32.5 14.38C32.63 14.44 32.75 14.5 32.87 14.57C33 14.63 33.12 14.7 33.24 14.77L33.24 19.09C33.15 19.16 33.07 19.23 32.98 19.3C32.9 19.36 32.81 19.42 32.72 19.48C32.63 19.54 32.53 19.59 32.44 19.65C32.34 19.7 32.25 19.75 32.15 19.79C32 19.84 31.85 19.88 31.7 19.92C31.55 19.96 31.4 19.99 31.24 20.02C31.09 20.05 30.94 20.07 30.78 20.09C30.63 20.11 30.47 20.12 30.32 20.13C29.17 20.22 28.3 20.59 28.12 21.87C28.11 21.91 28.1 21.94 28.09 21.98C28.08 22.01 28.07 22.05 28.05 22.08C28.04 22.11 28.02 22.14 28 22.17C27.98 22.2 27.96 22.23 27.94 22.26C27.88 22.34 27.84 22.42 27.82 22.52C27.79 22.61 27.78 22.7 27.79 22.8C27.8 22.89 27.83 22.98 27.87 23.07C27.91 23.15 27.96 23.23 28.03 23.3C28.63 24.13 29.19 25 29.79 25.84C29.89 25.94 29.95 26.05 30 26.18C30.04 26.3 30.06 26.44 30.05 26.57C30.03 26.7 29.99 26.83 29.93 26.94C29.86 27.06 29.78 27.16 29.67 27.24C28.84 28.04 28.02 28.86 27.22 29.69C27.14 29.8 27.03 29.89 26.91 29.95C26.79 30.02 26.65 30.06 26.52 30.07C26.38 30.08 26.24 30.06 26.11 30.01C25.98 29.96 25.86 29.88 25.77 29.79C24.93 29.18 24.05 28.63 23.21 28.03C23.15 27.98 23.07 27.94 22.99 27.91C22.91 27.88 22.83 27.86 22.74 27.85C22.66 27.84 22.57 27.84 22.49 27.85C22.4 27.86 22.32 27.88 22.24 27.91C21.91 27.96 21.59 28.08 21.3 28.25C21.01 28.42 20.76 28.64 20.55 28.9C20.34 29.17 20.19 29.47 20.09 29.79C20 30.11 19.97 30.45 20 30.78C19.99 30.9 19.98 31.02 19.97 31.14C19.96 31.26 19.94 31.38 19.92 31.5C19.9 31.62 19.87 31.73 19.84 31.85C19.81 31.97 19.78 32.08 19.74 32.19C19.69 32.29 19.65 32.38 19.6 32.47C19.55 32.56 19.5 32.64 19.44 32.73C19.39 32.82 19.33 32.9 19.27 32.99C19.22 33.07 19.16 33.16 19.09 33.24L14.76 33.24C14.7 33.15 14.63 33.06 14.57 32.98C14.51 32.89 14.45 32.8 14.4 32.7C14.34 32.61 14.29 32.52 14.24 32.42C14.19 32.32 14.14 32.23 14.1 32.13C14.05 31.97 14.01 31.82 13.97 31.66C13.93 31.51 13.9 31.35 13.87 31.19C13.84 31.03 13.81 30.87 13.79 30.71C13.77 30.55 13.76 30.39 13.75 30.23C13.67 29.14 13.32 28.3 12.11 28.12C12.08 28.11 12.06 28.11 12.04 28.1C12.01 28.09 11.99 28.09 11.97 28.08C11.95 28.07 11.93 28.06 11.91 28.04C11.88 28.03 11.86 28.02 11.85 28C11.38 27.64 11 27.8 10.57 28.12C9.76 28.72 8.91 29.25 8.08 29.83C8 29.91 7.9 29.97 7.79 30C7.68 30.04 7.57 30.05 7.45 30.05C7.34 30.04 7.23 30.01 7.13 29.95C7.02 29.9 6.93 29.83 6.86 29.74C5.98 28.86 5.1 27.98 4.22 27.09C4.13 27.02 4.06 26.94 4.01 26.84C3.96 26.74 3.93 26.64 3.92 26.53C3.91 26.42 3.92 26.31 3.96 26.21C3.99 26.11 4.04 26.01 4.11 25.92C4.18 25.8 4.25 25.69 4.32 25.57C4.4 25.45 4.47 25.34 4.55 25.22C4.63 25.11 4.71 25 4.79 24.89C4.88 24.78 4.96 24.67 5.05 24.57C5.32 24.35 5.54 24.09 5.7 23.79C5.86 23.49 5.97 23.16 6.01 22.82C6.04 22.48 6.02 22.14 5.92 21.81C5.83 21.48 5.67 21.18 5.46 20.91C5.43 20.85 5.38 20.79 5.34 20.74C5.29 20.69 5.24 20.64 5.18 20.6C5.13 20.56 5.07 20.52 5.01 20.48C4.95 20.45 4.88 20.42 4.82 20.4C3.84 20.17 2.84 20.04 1.86 19.8C1.76 19.77 1.67 19.73 1.57 19.69C1.48 19.65 1.39 19.6 1.3 19.55C1.2 19.51 1.11 19.46 1.02 19.4C0.94 19.35 0.85 19.3 0.76 19.24L0.76 14.77C1.11 14.1 1.8 14.16 2.39 14.04C3.92 13.74 5.73 13.88 6.03 11.69C6.03 11.67 6.06 11.64 6.06 11.63C6.04 11.37 6.1 11.06 5.97 10.86C5.4 9.95 4.79 9.06 4.16 8.19C4.07 8.08 3.99 7.96 3.95 7.83C3.91 7.7 3.89 7.56 3.91 7.42C3.92 7.29 3.96 7.15 4.03 7.03C4.1 6.91 4.19 6.81 4.3 6.72C5.11 5.94 5.91 5.14 6.69 4.33C6.78 4.22 6.88 4.13 7 4.06C7.12 3.99 7.26 3.95 7.39 3.94C7.53 3.93 7.67 3.95 7.8 3.99C7.93 4.04 8.05 4.11 8.15 4.2C9.01 4.82 9.88 5.41 10.77 5.99C10.82 6.02 10.87 6.05 10.93 6.07C10.98 6.09 11.04 6.11 11.1 6.12C11.16 6.13 11.22 6.14 11.28 6.14C11.34 6.14 11.4 6.13 11.46 6.12C11.79 6.08 12.11 5.99 12.41 5.83C12.7 5.67 12.97 5.46 13.19 5.21C13.4 4.96 13.57 4.66 13.68 4.35C13.79 4.03 13.84 3.7 13.83 3.36C13.8 3.13 13.8 2.9 13.82 2.67C13.85 2.44 13.89 2.21 13.96 1.98C14.03 1.76 14.12 1.55 14.23 1.34C14.34 1.14 14.47 0.94 14.62 0.77ZM23.73 17C23.75 14.26 22.11 11.79 19.59 10.73C17.06 9.67 14.15 10.24 12.21 12.16C10.26 14.09 9.67 17 10.71 19.53C11.75 22.06 14.21 23.72 16.95 23.73C17.83 23.73 18.71 23.56 19.54 23.23C20.36 22.89 21.11 22.4 21.74 21.77C22.37 21.15 22.87 20.4 23.21 19.58C23.55 18.76 23.73 17.89 23.73 17Z" />
			</g>
		</g>
	</g>
</svg>