<svg xmlns="http://www.w3.org/2000/svg" width="31.489" height="21.315" viewBox="0 0 31.489 21.315">
  <g id="show-password" transform="translate(-914 -685)">
    <path id="Subtraction_1" data-name="Subtraction 1" d="M-3.018,3.316c-.159,0-.321,0-.482-.006a18.333,18.333,0,0,1-7.66-1.753,15.542,15.542,0,0,1-4.746-3.575A15.166,15.166,0,0,1-19-7.128a16.847,16.847,0,0,1,3.194-5.4,15.692,15.692,0,0,1,4.759-3.733A16.835,16.835,0,0,1-3.5-18h.152A17.088,17.088,0,0,1,4.2-16.337a16.419,16.419,0,0,1,4.88,3.659,17.6,17.6,0,0,1,3.407,5.322A16.947,16.947,0,0,1,9.246-2.02,15.718,15.718,0,0,1,4.479,1.648,16.72,16.72,0,0,1-3.018,3.316ZM-2.85-14A7.158,7.158,0,0,0-10-6.85,7.158,7.158,0,0,0-2.85.3,7.158,7.158,0,0,0,4.3-6.85,7.159,7.159,0,0,0-2.85-14Z" transform="translate(933 703)" fill="#183457"/>
    <circle id="Ellipse_2" data-name="Ellipse 2" cx="4.15" cy="4.15" r="4.15" transform="translate(926 692)" fill="#183457"/>
  </g>
</svg>
