<svg xmlns="http://www.w3.org/2000/svg" width="14.984" height="20.848" viewBox="0 0 14.984 20.848">
  <g id="trash" transform="translate(-8.297 -4.5)">
    <path id="Path_4137" data-name="Path 4137" d="M9.359,9,10.64,24.782a1.589,1.589,0,0,0,1.591,1.591h7.655a1.589,1.589,0,0,0,1.591-1.591L22.741,9ZM12.7,23.387l-.364-12.65h1l.375,12.65Zm3.817,0h-.977V10.737h.977Zm2.839,0h-1.01l.369-12.65h1Z" transform="translate(-0.242 -1.025)" fill="#fd5353"/>
    <path id="Path_4138" data-name="Path 4138" d="M21.653,6.02H19.7L18.27,4.771a1.1,1.1,0,0,0-.717-.271H14.035a1.118,1.118,0,0,0-.728.271L11.88,6.02H9.926C8.97,6.02,8.3,6.476,8.3,7.432H23.281C23.281,6.476,22.608,6.02,21.653,6.02Z" fill="#fd5353"/>
  </g>
</svg>
