<svg id="twitter" xmlns="http://www.w3.org/2000/svg" width="24.094" height="19.576" viewBox="0 0 24.094 19.576">
  <g id="Group_920" data-name="Group 920" transform="translate(0 0)">
    <path id="Path_1993" data-name="Path 1993" d="M24.094,50.318a10.3,10.3,0,0,1-2.846.78,4.912,4.912,0,0,0,2.173-2.73,9.871,9.871,0,0,1-3.132,1.2,4.939,4.939,0,0,0-8.544,3.378,5.086,5.086,0,0,0,.114,1.126A13.981,13.981,0,0,1,1.678,48.9,4.941,4.941,0,0,0,3.2,55.5a4.878,4.878,0,0,1-2.232-.608v.054A4.962,4.962,0,0,0,4.921,59.8a4.93,4.93,0,0,1-1.3.163,4.368,4.368,0,0,1-.935-.084,4.987,4.987,0,0,0,4.616,3.441,9.925,9.925,0,0,1-6.124,2.107A9.251,9.251,0,0,1,0,65.36a13.906,13.906,0,0,0,7.578,2.217A13.962,13.962,0,0,0,21.636,53.521c0-.218-.008-.429-.018-.638A9.854,9.854,0,0,0,24.094,50.318Z" transform="translate(0 -48)" fill="#fff"/>
  </g>
</svg>
