<svg xmlns="http://www.w3.org/2000/svg" width="23.152" height="23.152" viewBox="0 0 23.152 23.152">
  <g id="user" transform="translate(0)">
    <g id="Group_865" data-name="Group 865" transform="translate(0)">
      <path id="Path_1987" data-name="Path 1987" d="M19.761,14.966a11.531,11.531,0,0,0-4.4-2.759,6.692,6.692,0,1,0-7.573,0A11.594,11.594,0,0,0,0,23.152H1.809a9.767,9.767,0,0,1,19.534,0h1.809A11.5,11.5,0,0,0,19.761,14.966Zm-8.185-3.39a4.884,4.884,0,1,1,4.884-4.884A4.889,4.889,0,0,1,11.576,11.576Z" transform="translate(0)" fill="#fff"/>
    </g>
  </g>
</svg>
