<svg xmlns="http://www.w3.org/2000/svg" width="40.644" height="30.74" viewBox="0 0 40.644 30.74">
  <g id="users-group" transform="translate(0.5 0.5)" style="isolation: isolate">
    <path id="Icon_material-people" data-name="Icon material-people" d="M-367.3-141.95a7.409,7.409,0,0,0,7.409-7.409,7.409,7.409,0,0,0-7.409-7.409,7.409,7.409,0,0,0-7.409,7.409,7.378,7.378,0,0,0,7.347,7.409Zm0,1.3c-4.056,0-12.187,2.037-12.187,6.093v4.353h24.373v-4.353c0-4.057-8.13-6.094-12.187-6.094Z" transform="translate(388.201 159.948)" fill="#254161" stroke="#244365" stroke-width="1"/>
    <g id="Group_213" data-name="Group 213" transform="translate(0 0)">
      <path id="Path_1783" data-name="Path 1783" d="M-377.61-146.367h.063a7.386,7.386,0,0,0,1.862-.245,7.834,7.834,0,0,1-1.072-3.986,7.933,7.933,0,0,1,5.255-7.452,7.4,7.4,0,0,0-6.045-3.134,7.409,7.409,0,0,0-7.409,7.409A7.378,7.378,0,0,0-377.61-146.367Z" transform="translate(389.734 161.185)" fill="#254161" stroke="#244365" stroke-width="1"/>
      <path id="Path_1784" data-name="Path 1784" d="M-383.394-129.528c0-4.709,8.966-6.612,12.7-6.612h0c.353,0,.77.021,1.214.055-.179-.12-.363-.236-.557-.348-.218.018-.437.033-.659.033h-.063a7.857,7.857,0,0,1-5.272-2.063,19.7,19.7,0,0,0-3.383-.34h0c-4.056,0-12.186,2.037-12.186,6.093v4.353h8.2Z" transform="translate(391.593 154.916)" fill="#254161" stroke="#244365" stroke-width="1"/>
    </g>
    <g id="Group_214" data-name="Group 214" transform="translate(21.655 1.775)">
      <path id="Path_1785" data-name="Path 1785" d="M-353.69-149.905a7.9,7.9,0,0,1-2.643,5.892,7.31,7.31,0,0,0,1.206.112h.063a7.409,7.409,0,0,0,7.409-7.409,7.409,7.409,0,0,0-7.409-7.409,7.377,7.377,0,0,0-4.14,1.264A7.941,7.941,0,0,1-353.69-149.905Z" transform="translate(360.866 158.719)" fill="#254161" stroke="#244365" stroke-width="1"/>
      <path id="Path_1786" data-name="Path 1786" d="M-355.71-136.336h0a22.2,22.2,0,0,0-5.8.907,23.255,23.255,0,0,1,7.056,1.541c3.2,1.282,4.9,3.029,4.9,5.049v2.948h6.035v-4.353C-343.523-134.3-351.654-136.336-355.71-136.336Z" transform="translate(361.512 152.45)" fill="#254161" stroke="#244365" stroke-width="1"/>
    </g>
    <path id="Icon_material-people-2" data-name="Icon material-people" d="M-367.3-141.95a7.409,7.409,0,0,0,7.409-7.409,7.409,7.409,0,0,0-7.409-7.409,7.409,7.409,0,0,0-7.409,7.409,7.378,7.378,0,0,0,7.347,7.409Zm0,1.3c-4.056,0-12.187,2.037-12.187,6.093v4.353h24.373v-4.353c0-4.057-8.13-6.094-12.187-6.094Z" transform="translate(388.201 159.948)" fill="#254161" stroke="#244365" stroke-width="1"/>
  </g>
</svg>
